<svg xmlns="http://www.w3.org/2000/svg" viewBox="0 0 64 64">
  <rect width="64" height="64" rx="16" fill="#b8e6b8"/>
  <g fill="none" stroke="#111" stroke-width="4" stroke-linecap="round" stroke-linejoin="round">
    <path d="M18 28v10a8 8 0 0 0 8 8h2V25H26a8 8 0 0 0-8 8z" />
    <path d="M46 28v10a8 8 0 0 1-8 8h-2V25h2a8 8 0 0 1 8 8z" />
    <path d="M20 30a12 12 0 0 1 24 0" />
    <path d="M22 36h20" />
    <path d="M24 44v6" />
    <path d="M40 44v6" />
  </g>
  <path d="M21 20c4-6 10-8 11-8s7 2 11 8" fill="none" stroke="#111" stroke-width="3" stroke-linecap="round"/>
  <circle cx="32" cy="34" r="2.5" fill="#111" />
</svg>
